<svg width="400" height="300" viewBox="0 0 400 300" fill="none" xmlns="http://www.w3.org/2000/svg">
  <!-- Background -->
  <rect width="400" height="300" fill="#F8FAFC"/>
  
  <!-- Calculator -->
  <rect x="50" y="80" width="120" height="140" rx="8" fill="#3B82F6" stroke="#1E40AF" stroke-width="2"/>
  <rect x="60" y="90" width="100" height="60" rx="4" fill="#1E40AF"/>
  
  <!-- Calculator buttons -->
  <circle cx="80" cy="200" r="8" fill="#E5E7EB"/>
  <circle cx="100" cy="200" r="8" fill="#E5E7EB"/>
  <circle cx="120" cy="200" r="8" fill="#E5E7EB"/>
  <circle cx="140" cy="200" r="8" fill="#E5E7EB"/>
  <circle cx="80" cy="220" r="8" fill="#E5E7EB"/>
  <circle cx="100" cy="220" r="8" fill="#E5E7EB"/>
  <circle cx="120" cy="220" r="8" fill="#E5E7EB"/>
  <circle cx="140" cy="220" r="8" fill="#E5E7EB"/>
  
  <!-- AI Brain -->
  <circle cx="280" cy="100" r="40" fill="#8B5CF6" stroke="#6D28D9" stroke-width="2"/>
  <path d="M260 90 Q280 80 300 90 Q300 100 280 110 Q260 100 260 90" fill="#A78BFA"/>
  <circle cx="270" cy="95" r="3" fill="#4C1D95"/>
  <circle cx="290" cy="95" r="3" fill="#4C1D95"/>
  
  <!-- Neural network lines -->
  <line x1="240" y1="100" x2="280" y2="100" stroke="#8B5CF6" stroke-width="2"/>
  <line x1="320" y1="100" x2="360" y2="100" stroke="#8B5CF6" stroke-width="2"/>
  <line x1="280" y1="60" x2="280" y2="100" stroke="#8B5CF6" stroke-width="2"/>
  <line x1="280" y1="100" x2="280" y2="140" stroke="#8B5CF6" stroke-width="2"/>
  
  <!-- Charts and graphs -->
  <rect x="200" y="180" width="80" height="60" rx="4" fill="#10B981" stroke="#059669" stroke-width="2"/>
  <rect x="210" y="190" width="8" height="20" fill="#D1FAE5"/>
  <rect x="225" y="200" width="8" height="10" fill="#D1FAE5"/>
  <rect x="240" y="185" width="8" height="25" fill="#D1FAE5"/>
  <rect x="255" y="195" width="8" height="15" fill="#D1FAE5"/>
  
  <!-- Document/Invoice -->
  <rect x="50" y="20" width="80" height="100" rx="4" fill="#FEF3C7" stroke="#F59E0B" stroke-width="2"/>
  <rect x="60" y="30" width="60" height="2" fill="#F59E0B"/>
  <rect x="60" y="40" width="40" height="2" fill="#F59E0B"/>
  <rect x="60" y="50" width="50" height="2" fill="#F59E0B"/>
  <rect x="60" y="60" width="35" height="2" fill="#F59E0B"/>
  <rect x="60" y="70" width="45" height="2" fill="#F59E0B"/>
  <rect x="60" y="80" width="30" height="2" fill="#F59E0B"/>
  
  <!-- Money/Coins -->
  <circle cx="320" cy="200" r="15" fill="#F59E0B" stroke="#D97706" stroke-width="2"/>
  <circle cx="320" cy="200" r="10" fill="#FEF3C7"/>
  <text x="320" y="205" text-anchor="middle" fill="#D97706" font-size="12" font-weight="bold">$</text>
  
  <circle cx="350" cy="220" r="12" fill="#10B981" stroke="#059669" stroke-width="2"/>
  <circle cx="350" cy="220" r="8" fill="#D1FAE5"/>
  <text x="350" y="225" text-anchor="middle" fill="#059669" font-size="10" font-weight="bold">€</text>
  
  <!-- Database/Server -->
  <ellipse cx="200" cy="50" rx="30" ry="8" fill="#6B7280" stroke="#374151" stroke-width="2"/>
  <rect x="170" y="50" width="60" height="40" fill="#6B7280" stroke="#374151" stroke-width="2"/>
  <ellipse cx="200" cy="90" rx="30" ry="8" fill="#4B5563" stroke="#374151" stroke-width="2"/>
  
  <!-- Connection lines -->
  <line x1="110" y1="150" x2="200" y2="90" stroke="#6B7280" stroke-width="2" stroke-dasharray="5,5"/>
  <line x1="200" y1="90" x2="240" y2="100" stroke="#6B7280" stroke-width="2" stroke-dasharray="5,5"/>
  <line x1="320" y1="100" x2="320" y2="200" stroke="#6B7280" stroke-width="2" stroke-dasharray="5,5"/>
</svg>
